<svg width="137" height="40" viewBox="0 0 137 40" fill="none" xmlns="http://www.w3.org/2000/svg">
<path d="M54.52 16.12C54.056 15.144 53.384 14.392 52.504 13.864C51.624 13.32 50.6 13.048 49.432 13.048C48.264 13.048 47.208 13.32 46.264 13.864C45.336 14.392 44.6 15.16 44.056 16.168C43.528 17.16 43.264 18.312 43.264 19.624C43.264 20.936 43.528 22.088 44.056 23.08C44.6 24.072 45.336 24.84 46.264 25.384C47.208 25.912 48.264 26.176 49.432 26.176C51.064 26.176 52.408 25.688 53.464 24.712C54.52 23.736 55.136 22.416 55.312 20.752H48.64V18.976H57.64V20.656C57.512 22.032 57.08 23.296 56.344 24.448C55.608 25.584 54.64 26.488 53.44 27.16C52.24 27.816 50.904 28.144 49.432 28.144C47.88 28.144 46.464 27.784 45.184 27.064C43.904 26.328 42.888 25.312 42.136 24.016C41.4 22.72 41.032 21.256 41.032 19.624C41.032 17.992 41.4 16.528 42.136 15.232C42.888 13.92 43.904 12.904 45.184 12.184C46.464 11.448 47.88 11.08 49.432 11.08C51.208 11.08 52.776 11.52 54.136 12.4C55.512 13.28 56.512 14.52 57.136 16.12H54.52ZM60.1197 15.016C60.2317 13.544 60.7997 12.392 61.8237 11.56C62.8477 10.728 64.1757 10.312 65.8077 10.312C66.8957 10.312 67.8317 10.512 68.6157 10.912C69.4157 11.296 70.0157 11.824 70.4157 12.496C70.8317 13.168 71.0397 13.928 71.0397 14.776C71.0397 15.768 70.7517 16.624 70.1757 17.344C69.6157 18.064 68.8797 18.528 67.9677 18.736V18.856C69.0077 19.112 69.8317 19.616 70.4397 20.368C71.0477 21.12 71.3517 22.104 71.3517 23.32C71.3517 24.232 71.1437 25.056 70.7277 25.792C70.3117 26.512 69.6877 27.08 68.8557 27.496C68.0237 27.912 67.0237 28.12 65.8557 28.12C64.1597 28.12 62.7677 27.68 61.6797 26.8C60.5917 25.904 59.9837 24.64 59.8557 23.008H61.9677C62.0797 23.968 62.4717 24.752 63.1437 25.36C63.8157 25.968 64.7117 26.272 65.8317 26.272C66.9517 26.272 67.7997 25.984 68.3757 25.408C68.9677 24.816 69.2637 24.056 69.2637 23.128C69.2637 21.928 68.8637 21.064 68.0637 20.536C67.2637 20.008 66.0557 19.744 64.4397 19.744H63.8877V17.92H64.4637C65.9357 17.904 67.0477 17.664 67.7997 17.2C68.5517 16.72 68.9277 15.984 68.9277 14.992C68.9277 14.144 68.6477 13.464 68.0877 12.952C67.5437 12.44 66.7597 12.184 65.7357 12.184C64.7437 12.184 63.9437 12.44 63.3357 12.952C62.7277 13.464 62.3677 14.152 62.2557 15.016H60.1197ZM87.8125 28H85.6285L76.8445 14.68V28H74.6605V11.248H76.8445L85.6285 24.544V11.248H87.8125V28ZM103.536 20.92C103.536 21.336 103.512 21.776 103.464 22.24H92.9515C93.0315 23.536 93.4715 24.552 94.2715 25.288C95.0875 26.008 96.0715 26.368 97.2235 26.368C98.1675 26.368 98.9515 26.152 99.5755 25.72C100.216 25.272 100.664 24.68 100.92 23.944H103.272C102.92 25.208 102.216 26.24 101.16 27.04C100.104 27.824 98.7915 28.216 97.2235 28.216C95.9755 28.216 94.8555 27.936 93.8635 27.376C92.8875 26.816 92.1195 26.024 91.5595 25C90.9995 23.96 90.7195 22.76 90.7195 21.4C90.7195 20.04 90.9915 18.848 91.5355 17.824C92.0795 16.8 92.8395 16.016 93.8155 15.472C94.8075 14.912 95.9435 14.632 97.2235 14.632C98.4715 14.632 99.5755 14.904 100.536 15.448C101.496 15.992 102.232 16.744 102.744 17.704C103.272 18.648 103.536 19.72 103.536 20.92ZM101.28 20.464C101.28 19.632 101.096 18.92 100.728 18.328C100.36 17.72 99.8555 17.264 99.2155 16.96C98.5915 16.64 97.8955 16.48 97.1275 16.48C96.0235 16.48 95.0795 16.832 94.2955 17.536C93.5275 18.24 93.0875 19.216 92.9755 20.464H101.28ZM123.938 14.848L119.834 28H117.578L114.41 17.56L111.242 28H108.986L104.858 14.848H107.09L110.114 25.888L113.378 14.848H115.61L118.802 25.912L121.778 14.848H123.938ZM130.762 28.216C129.754 28.216 128.85 28.048 128.05 27.712C127.25 27.36 126.618 26.88 126.154 26.272C125.69 25.648 125.434 24.936 125.386 24.136H127.642C127.706 24.792 128.01 25.328 128.554 25.744C129.114 26.16 129.842 26.368 130.738 26.368C131.57 26.368 132.226 26.184 132.706 25.816C133.186 25.448 133.426 24.984 133.426 24.424C133.426 23.848 133.17 23.424 132.658 23.152C132.146 22.864 131.354 22.584 130.282 22.312C129.306 22.056 128.506 21.8 127.882 21.544C127.274 21.272 126.746 20.88 126.298 20.368C125.866 19.84 125.65 19.152 125.65 18.304C125.65 17.632 125.85 17.016 126.25 16.456C126.65 15.896 127.218 15.456 127.954 15.136C128.69 14.8 129.53 14.632 130.474 14.632C131.93 14.632 133.106 15 134.002 15.736C134.898 16.472 135.378 17.48 135.442 18.76H133.258C133.21 18.072 132.93 17.52 132.418 17.104C131.922 16.688 131.25 16.48 130.402 16.48C129.618 16.48 128.994 16.648 128.53 16.984C128.066 17.32 127.834 17.76 127.834 18.304C127.834 18.736 127.97 19.096 128.242 19.384C128.53 19.656 128.882 19.88 129.298 20.056C129.73 20.216 130.322 20.4 131.074 20.608C132.018 20.864 132.786 21.12 133.378 21.376C133.97 21.616 134.474 21.984 134.89 22.48C135.322 22.976 135.546 23.624 135.562 24.424C135.562 25.144 135.362 25.792 134.962 26.368C134.562 26.944 133.994 27.4 133.258 27.736C132.538 28.056 131.706 28.216 130.762 28.216Z" fill="#363F5F"/>
<path d="M34.25 24.2667C34.75 22.5333 35 20.6667 35 18.6667C35 8.4 27.125 0 17.5 0C7.875 0 0 8.4 0 18.6667C0 26.9333 5.125 34.2667 12.625 36.5333C14 38.6667 16.25 40 18.75 40C20.25 40 21.625 39.6 22.875 38.6667H28.375C29.625 39.6 31 40 32.5 40C36.625 40 40 36.4 40 32C40 28.2667 37.5 25.0667 34.25 24.2667ZM32.375 17.3333H26.125C26 11.7333 24.625 6.8 22.625 3.73333C28.125 5.86667 32 11.0667 32.375 17.3333ZM12.25 3.73333C10.25 6.8 9 11.7333 8.75 17.3333H2.5C3 11.0667 6.875 5.86667 12.25 3.73333ZM2.5 20H8.75C8.875 24.5333 9.75 28.8 11.25 31.8667V32C11.25 32.4 11.25 32.8 11.375 33.3333C6.375 30.9333 3 25.8667 2.5 20ZM21.25 33.3333H20V34.6667C20 35.4667 19.5 36 18.75 36C18 36 17.5 35.4667 17.5 34.6667V33.3333H16.25C15.5 33.3333 15 32.8 15 32C15 31.2 15.5 30.6667 16.25 30.6667H17.5V29.3333C17.5 28.5333 18 28 18.75 28C19.5 28 20 28.5333 20 29.3333V30.6667H21.25C22 30.6667 22.5 31.2 22.5 32C22.5 32.8 22 33.3333 21.25 33.3333ZM23.125 25.3333H22.875C21.625 24.4 20.25 24 18.75 24C16.125 24 13.75 25.4667 12.375 27.7333C11.75 25.4667 11.375 22.8 11.25 20H23.75C23.625 21.8667 23.5 23.6 23.125 25.3333ZM11.25 17.3333C11.5 8.66667 14.625 2.66667 17.5 2.66667C20.375 2.66667 23.375 8.66667 23.75 17.3333H11.25ZM25.75 25.3333C26 23.6 26.25 21.8667 26.25 20H32.5C32.375 21.3333 32.125 22.8 31.625 24.1333C30.5 24.2667 29.375 24.6667 28.375 25.3333H25.75ZM32.375 33.8667C32.25 34 32.25 34.1333 32.125 34.2667C32 34.4 31.875 34.5333 31.75 34.5333C31.625 34.5333 31.375 34.6667 31.25 34.6667C31.125 34.6667 30.875 34.6667 30.75 34.5333C30.625 34.5333 30.5 34.4 30.375 34.2667C30.25 34.1333 30.125 34 30.125 33.8667C30.125 33.7333 30 33.4667 30 33.3333C30 33.2 30 32.9333 30.125 32.8C30.25 32.6667 30.25 32.5333 30.375 32.4C30.5 32.2667 30.625 32.1333 30.75 32.1333C31.25 31.8667 31.75 32 32.125 32.4C32.25 32.5333 32.375 32.6667 32.375 32.8C32.375 32.9333 32.5 33.2 32.5 33.3333C32.5 33.4667 32.5 33.7333 32.375 33.8667ZM34.625 31.6C34.375 31.8667 34.125 32 33.75 32C33.625 32 33.375 32 33.25 31.8667C33.125 31.8667 33 31.7333 32.875 31.6C32.75 31.4667 32.625 31.3333 32.625 31.2C32.625 31.0667 32.5 30.8 32.5 30.6667C32.5 30.2667 32.625 30 32.875 29.7333C33 29.6 33.125 29.4667 33.25 29.4667C33.5 29.3333 33.75 29.3333 34 29.3333C34.125 29.3333 34.125 29.3333 34.25 29.4667C34.375 29.4667 34.375 29.4667 34.5 29.6L34.625 29.7333C34.875 30 35 30.4 35 30.6667C35 31.0667 34.875 31.3333 34.625 31.6Z" fill="#363F5F"/>
</svg>
