<?xml version="1.0" encoding="utf-8"?>
<svg viewBox="-21.608 0 526.405 512" xmlns="http://www.w3.org/2000/svg">
  <path fill="#7F4AFF" d="M 111.051 442.516 L 147.709 442.516 L 147.709 479.174 L 111.051 479.174 L 111.051 442.516 Z M 109.76 152.281 L 146.418 152.281 L 146.418 115.623 L 73.102 115.623 L 73.102 188.939 L 109.76 188.939 L 109.76 152.281 Z M 146.418 42.307 L 109.76 42.307 L 109.76 78.965 L 146.418 78.965 L 146.418 42.307 Z M 402.133 188.939 L 438.791 188.939 L 438.791 115.623 L 365.475 115.623 L 365.475 152.281 L 402.133 152.281 L 402.133 188.939 Z M 402.133 42.307 L 365.475 42.307 L 365.475 78.965 L 402.133 78.965 L 402.133 42.307 Z M 475.342 152.174 L 475.342 260.723 L 402.314 260.723 L 402.314 224.493 L 366.232 224.493 L 366.232 188.28 L 329.262 188.28 L 329.262 114.964 L 292.604 114.964 L 292.604 188.28 L 219.288 188.28 L 219.288 114.964 L 182.63 114.964 L 182.63 188.28 L 145.972 188.28 L 145.972 224.493 L 109.76 224.493 L 109.76 260.723 L 36.658 260.723 L 36.658 152.281 L 0 152.281 L 0 260.937 L 36.299 260.937 L 36.299 297.381 L 109.76 297.381 L 109.76 406.285 L 147.709 406.285 L 147.709 442.515 L 219.479 442.515 L 219.479 406.285 L 293.377 406.285 L 293.377 442.515 L 365.147 442.515 L 365.147 406.285 L 402.313 406.285 L 402.313 297.381 L 475.448 297.381 L 475.448 260.83 L 512 260.83 L 512 152.174 L 475.342 152.174 Z M 365.475 479.173 L 402.133 479.173 L 402.133 442.515 L 365.475 442.515 L 365.475 479.173 Z" transform="matrix(0.965926, -0.258819, 0.258819, 0.965926, -58.761635, 75.14222)"/>
  <path fill="#132028" d="M 218.573 332.941 L 145.973 332.941 L 145.973 260.939 L 218.573 260.939 L 218.573 332.941 Z M 366.232 260.939 L 294.031 260.939 L 294.031 332.941 L 366.232 332.941 L 366.232 260.939 Z" transform="matrix(0.965926, -0.258819, 0.258819, 0.965926, -68.127251, 76.402191)"/>
</svg>