<svg width="40" height="40" viewBox="0 0 40 40" fill="none" xmlns="http://www.w3.org/2000/svg">
<path d="M34.25 24.2667C34.75 22.5333 35 20.6667 35 18.6667C35 8.4 27.125 0 17.5 0C7.875 0 0 8.4 0 18.6667C0 26.9333 5.125 34.2667 12.625 36.5333C14 38.6667 16.25 40 18.75 40C20.25 40 21.625 39.6 22.875 38.6667H28.375C29.625 39.6 31 40 32.5 40C36.625 40 40 36.4 40 32C40 28.2667 37.5 25.0667 34.25 24.2667ZM32.375 17.3333H26.125C26 11.7333 24.625 6.8 22.625 3.73333C28.125 5.86667 32 11.0667 32.375 17.3333ZM12.25 3.73333C10.25 6.8 9 11.7333 8.75 17.3333H2.5C3 11.0667 6.875 5.86667 12.25 3.73333ZM2.5 20H8.75C8.875 24.5333 9.75 28.8 11.25 31.8667V32C11.25 32.4 11.25 32.8 11.375 33.3333C6.375 30.9333 3 25.8667 2.5 20ZM21.25 33.3333H20V34.6667C20 35.4667 19.5 36 18.75 36C18 36 17.5 35.4667 17.5 34.6667V33.3333H16.25C15.5 33.3333 15 32.8 15 32C15 31.2 15.5 30.6667 16.25 30.6667H17.5V29.3333C17.5 28.5333 18 28 18.75 28C19.5 28 20 28.5333 20 29.3333V30.6667H21.25C22 30.6667 22.5 31.2 22.5 32C22.5 32.8 22 33.3333 21.25 33.3333ZM23.125 25.3333H22.875C21.625 24.4 20.25 24 18.75 24C16.125 24 13.75 25.4667 12.375 27.7333C11.75 25.4667 11.375 22.8 11.25 20H23.75C23.625 21.8667 23.5 23.6 23.125 25.3333ZM11.25 17.3333C11.5 8.66667 14.625 2.66667 17.5 2.66667C20.375 2.66667 23.375 8.66667 23.75 17.3333H11.25ZM25.75 25.3333C26 23.6 26.25 21.8667 26.25 20H32.5C32.375 21.3333 32.125 22.8 31.625 24.1333C30.5 24.2667 29.375 24.6667 28.375 25.3333H25.75ZM32.375 33.8667C32.25 34 32.25 34.1333 32.125 34.2667C32 34.4 31.875 34.5333 31.75 34.5333C31.625 34.5333 31.375 34.6667 31.25 34.6667C31.125 34.6667 30.875 34.6667 30.75 34.5333C30.625 34.5333 30.5 34.4 30.375 34.2667C30.25 34.1333 30.125 34 30.125 33.8667C30.125 33.7333 30 33.4667 30 33.3333C30 33.2 30 32.9333 30.125 32.8C30.25 32.6667 30.25 32.5333 30.375 32.4C30.5 32.2667 30.625 32.1333 30.75 32.1333C31.25 31.8667 31.75 32 32.125 32.4C32.25 32.5333 32.375 32.6667 32.375 32.8C32.375 32.9333 32.5 33.2 32.5 33.3333C32.5 33.4667 32.5 33.7333 32.375 33.8667ZM34.625 31.6C34.375 31.8667 34.125 32 33.75 32C33.625 32 33.375 32 33.25 31.8667C33.125 31.8667 33 31.7333 32.875 31.6C32.75 31.4667 32.625 31.3333 32.625 31.2C32.625 31.0667 32.5 30.8 32.5 30.6667C32.5 30.2667 32.625 30 32.875 29.7333C33 29.6 33.125 29.4667 33.25 29.4667C33.5 29.3333 33.75 29.3333 34 29.3333C34.125 29.3333 34.125 29.3333 34.25 29.4667C34.375 29.4667 34.375 29.4667 34.5 29.6L34.625 29.7333C34.875 30 35 30.4 35 30.6667C35 31.0667 34.875 31.3333 34.625 31.6Z" fill="#363F5F"/>
</svg>
